# xmcd
#
# Track frame offsets:
#   150
#   24855
#   39735
#   56920
#   74105
#   114315
#   145460
#   170145
#   191390
#   204290
#   225377
#   255307
#
# Disc length: 3703 seconds
#
# Revision: 0
# Processed by: cddbd v1.5.2PL0 Copyright (c) Steve Scherf et al.
# Submitted via: uFREEDB ActiveX Control 1.5
#
DISCID=a80e750c
DTITLE=Little John Chirisley - Little John Chirisley
DYEAR=1900
DGENRE=Blues
TTITLE0=Born In Rochester
TTITLE1=War Headed Woman
TTITLE2=The Way It Goes
TTITLE3=The Way It Goes
TTITLE4=Disconnected
TTITLE5=Big Bad Boogie
TTITLE6=Master Plan
TTITLE7=Don't Sufocate Me
TTITLE8=Burie In Bills
TTITLE9=Beer Googles
TTITLE10=Life's Undertown
TTITLE11=Stone Cold Blue
EXTD=
EXTT0=
EXTT1=
EXTT2=
EXTT3=
EXTT4=
EXTT5=
EXTT6=
EXTT7=
EXTT8=
EXTT9=
EXTT10=
EXTT11=
PLAYORDER=
